# xmcd
#
# Track frame offsets:
#	150
#	1432
#	141580
#	155403
#	194564
#	233238
#	244015
#	247078
#
# Disc length: 3306 seconds
# Revision: 0
# Processed by: cddbd v1.5.2PL0 Copyright (c) Steve Scherf et al.
# Submitted via: dBpowerAMP V12.0
#
DISCID=6f0ce808
DTITLE=Hale Dwoskin - The Inner Circle Retreat 03 CD 01
DYEAR=2007
DGENRE=Speech
TTITLE0=Intro Music
TTITLE1=Introduction
TTITLE2=The I Am Called Process
TTITLE3=Sharing
TTITLE4=The Story of Your Life
TTITLE5=All Reasons Are Made Up
TTITLE6=Sharing
TTITLE7=Concluding Music
EXTD=
EXTT0=
EXTT1=
EXTT2=
EXTT3=
EXTT4=
EXTT5=
EXTT6=
EXTT7=
PLAYORDER=
